<?xml version="1.0" encoding="UTF-8" standalone="no"?>
<!-- Created with Inkscape (http://www.inkscape.org/) -->

<svg
   width="101mm"
   height="64mm"
   viewBox="0 0 101 64"
   version="1.1"
   id="svg1"
   inkscape:version="1.3.2 (091e20e, 2023-11-25, custom)"
   sodipodi:docname="compas.svg"
   xmlns:inkscape="http://www.inkscape.org/namespaces/inkscape"
   xmlns:sodipodi="http://sodipodi.sourceforge.net/DTD/sodipodi-0.dtd"
   xmlns="http://www.w3.org/2000/svg"
   xmlns:svg="http://www.w3.org/2000/svg">
  <sodipodi:namedview
     id="namedview1"
     pagecolor="#ffffff"
     bordercolor="#666666"
     borderopacity="1.0"
     inkscape:showpageshadow="2"
     inkscape:pageopacity="0.0"
     inkscape:pagecheckerboard="0"
     inkscape:deskcolor="#d1d1d1"
     inkscape:document-units="mm"
     inkscape:zoom="1.3278886"
     inkscape:cx="240.231"
     inkscape:cy="105.80707"
     inkscape:window-width="1366"
     inkscape:window-height="705"
     inkscape:window-x="-8"
     inkscape:window-y="-8"
     inkscape:window-maximized="1"
     inkscape:current-layer="layer1"
     showguides="false" />
  <defs
     id="defs1" />
  <g
     inkscape:label="Calque 1"
     inkscape:groupmode="layer"
     id="layer1">
    <path
       id="path1"
       style="opacity:0.99;fill:#ffffff;stroke:#000000;stroke-width:0.0309999"
       d="M 50.500256,0.445337 A 50,50 0 0 0 0.535864,49.902263 h -0.03772 v 13.6524 H 100.50186 v -13.6524 h -0.0139 A 50,50 0 0 0 50.500256,0.445337 Z m 16.67857,46.105716 a 2.573247,2.573247 0 0 1 2.76572,2.56573 2.573247,2.573247 0 1 1 -5.14645,0 2.573247,2.573247 0 0 1 2.38073,-2.56573 z m -13.34286,0.23978 a 6.802757,6.802757 0 0 1 6.45026,6.79596 6.802757,6.802757 0 1 1 -13.60537,0 6.802757,6.802757 0 0 1 6.29418,-6.78615 6.802757,6.802757 0 0 1 0.86093,-0.01 z m -34.519336,8.56588 a 2.236068,2.236068 0 0 1 2.402954,2.22984 2.236068,2.236068 0 0 1 -4.472078,0 2.236068,2.236068 0 0 1 2.069124,-2.22984 z" />
    <text
       xml:space="preserve"
       style="font-size:8.46667px;line-height:1.25;font-family:Baloo;-inkscape-font-specification:Baloo;letter-spacing:0px;word-spacing:0px;stroke-width:0.264583"
       x="44.018803"
       y="7.0522132"
       id="text1"><tspan
         sodipodi:role="line"
         id="tspan1"
         style="font-size:8.46667px;stroke-width:0.264583"
         x="44.018803"
         y="7.0522132">90°</tspan></text>
    <path
       d="m 5.8952251,46.648148 q 0,-0.745067 -0.2201334,-1.151467 -0.2116668,-0.406401 -0.6096003,-0.406401 -0.3979335,0 -0.6096002,0.406401 -0.2032001,0.4064 -0.2032001,1.151467 0,0.745067 0.2032001,1.159933 0.2116667,0.406401 0.6096002,0.406401 0.3979335,0 0.6096003,-0.406401 0.2201334,-0.414866 0.2201334,-1.159933 z m 1.4478006,0 q 0,0.651933 -0.1693334,1.159933 -0.1693334,0.508001 -0.4741336,0.855134 -0.2963334,0.338667 -0.7196669,0.516467 -0.4148668,0.1778 -0.9059337,0.1778 -0.4995335,0 -0.922867,-0.1778 -0.4148669,-0.1778 -0.719667,-0.516467 -0.2963334,-0.347133 -0.4656668,-0.855134 -0.1608668,-0.508 -0.1608668,-1.159933 0,-0.651934 0.1608668,-1.151467 0.1693334,-0.508001 0.4656668,-0.846667 0.3048001,-0.347134 0.719667,-0.524934 0.4233335,-0.1778 0.922867,-0.1778 0.4910669,0 0.9059337,0.1778 0.4233335,0.1778 0.7196669,0.524934 0.3048002,0.338666 0.4741336,0.846667 0.1693334,0.499533 0.1693334,1.151467 z m 1.7187398,-0.499534 q -0.6519336,0 -1.0160004,-0.3556 -0.3556002,-0.3556 -0.3556002,-0.897467 0,-0.5588 0.3725335,-0.905934 0.3725335,-0.3556 1.0329338,-0.3556 0.6350002,0 1.0075338,0.3556 0.372533,0.347134 0.372533,0.905934 0,0.270933 -0.1016,0.499534 -0.1016,0.2286 -0.287866,0.397933 -0.1862672,0.169333 -0.4487339,0.262467 -0.2624668,0.09313 -0.5757336,0.09313 z m 0.00847,-0.804333 q 0.1778,0 0.2878667,-0.118534 0.1185334,-0.118533 0.1185334,-0.3302 0,-0.2032 -0.1016,-0.321733 -0.1016001,-0.127001 -0.2794001,-0.127001 -0.1693334,0 -0.2878668,0.118534 -0.1185334,0.110067 -0.1185334,0.3302 0,0.211667 0.1016001,0.3302 0.1016,0.118534 0.2794001,0.118534 z"
       id="text1-2"
       style="font-size:8.46667px;line-height:1.25;font-family:Baloo;-inkscape-font-specification:Baloo;letter-spacing:0px;word-spacing:0px;stroke-width:0.264583"
       aria-label="0°" />
    <text
       xml:space="preserve"
       style="font-size:8.46667px;line-height:1.25;font-family:Baloo;-inkscape-font-specification:Baloo;letter-spacing:0px;word-spacing:0px;stroke-width:0.264583"
       x="83.173683"
       y="49.217789"
       id="text1-2-3"><tspan
         sodipodi:role="line"
         id="tspan1-2-5"
         style="font-size:8.46667px;stroke-width:0.264583"
         x="83.173683"
         y="49.217789">180°</tspan></text>
  </g>
</svg>
